<svg width="50" height="48" viewBox="0 0 50 48" fill="none" xmlns="http://www.w3.org/2000/svg">
<path d="M7.5 18.4966V30.9084C7.5 32.559 5.92448 33.8773 3.91927 33.8773C1.92708 33.8773 0 32.5483 0 30.9084V18.4966C0 16.8781 1.92708 15.5491 3.91927 15.5491C5.88542 15.5491 7.5 16.8781 7.5 18.4966ZM8.90625 35.3243C8.90625 37.0821 10.625 38.4969 12.7604 38.4969H15.3516L15.3906 45.0458C15.3906 49.0008 22.5781 48.9687 22.5781 45.0458V38.4969H27.4219V45.0458C27.4219 48.9794 34.6484 48.9901 34.6484 45.0458V38.4969H37.2786C39.388 38.4969 41.1068 37.0821 41.1068 35.3243V16.0957H8.90625V35.3243ZM41.1979 15.056H8.76302C8.76302 10.4686 12.0964 6.48142 17.0443 4.40208L14.5573 0.618529C14.1927 0.0933339 15.1172 -0.238932 15.4297 0.211235L17.9557 4.02694C22.5 2.36561 27.7214 2.45135 32.0573 4.02694L34.5703 0.221953C34.8958 -0.238933 35.8073 0.104052 35.4427 0.629247L32.9557 4.40208C37.8646 6.48142 41.1979 10.4686 41.1979 15.056ZM18.9714 9.1074C18.9714 8.49646 18.3724 7.98198 17.6042 7.98198C16.862 7.98198 16.276 8.49646 16.276 9.1074C16.276 9.71834 16.875 10.2328 17.6042 10.2328C18.3724 10.2328 18.9714 9.71834 18.9714 9.1074ZM33.737 9.1074C33.737 8.49646 33.138 7.98198 32.4089 7.98198C31.6406 7.98198 31.0417 8.49646 31.0417 9.1074C31.0417 9.71834 31.6406 10.2328 32.4089 10.2328C33.138 10.2328 33.737 9.71834 33.737 9.1074ZM46.0807 15.5491C44.1146 15.5491 42.5 16.846 42.5 18.4966V30.9084C42.5 32.559 44.1146 33.8773 46.0807 33.8773C48.0859 33.8773 50 32.5483 50 30.9084V18.4966C50 16.846 48.0729 15.5491 46.0807 15.5491Z" fill="#F2491F"/>
</svg>
