<svg width="540" height="364" viewBox="0 0 540 364" fill="none" xmlns="http://www.w3.org/2000/svg">
<g clip-path="url(#clip0_5_248)">
<path d="M462.642 197.185C462.642 253.172 425.892 302.702 369.557 332.853C333.437 352.188 289.261 363.557 241.561 363.557C178.017 363.557 129.545 342.107 93.0829 309.248C59.4749 278.969 36.0737 238.993 20.4812 197.185C-49.1279 10.5223 67.1548 -40.4019 241.561 30.8132C352.607 76.1613 462.642 105.303 462.642 197.185Z" fill="#F2491F"/>
<path d="M369.557 99.4661V333.296C333.437 352.631 289.261 364 241.562 364C178.017 364 129.545 342.55 93.0829 309.69V99.4661H369.557Z" fill="#F2F2F2"/>
<path d="M119.675 213.401C134.151 209.288 149.17 206.897 164.345 206.288C171.949 205.999 179.567 206.265 187.122 207.084C194.605 207.968 201.997 209.381 209.228 211.311C216.373 213.159 223.42 215.293 230.541 217.212C237.775 219.185 245.129 220.788 252.567 222.013C259.967 223.209 267.441 224.004 274.948 224.395C282.381 224.781 289.888 224.856 297.301 224.149C304.225 223.554 311.006 222.018 317.412 219.596C323.386 217.267 328.907 214.104 333.768 210.225C334.981 209.258 336.148 208.248 337.269 207.196C337.93 206.579 336.881 205.638 336.218 206.257C326.742 215.105 314.287 220.591 300.778 222.422C293.419 223.42 285.919 223.478 278.495 223.221C270.905 222.959 263.34 222.277 255.844 221.177C248.439 220.08 241.114 218.591 233.907 216.717C226.828 214.885 219.845 212.773 212.791 210.869C205.674 208.873 198.409 207.327 191.05 206.242C183.669 205.238 176.209 204.776 168.744 204.859C153.828 205.073 139.007 207.033 124.661 210.69C122.859 211.142 121.065 211.619 119.28 212.121C118.371 212.376 118.759 213.658 119.675 213.401H119.675Z" fill="#3F3D56"/>
<path d="M119.675 247.035C134.151 242.922 149.17 240.531 164.345 239.922C171.949 239.633 179.567 239.899 187.122 240.718C194.605 241.602 201.997 243.015 209.228 244.945C216.373 246.793 223.42 248.927 230.541 250.846C237.775 252.819 245.129 254.422 252.567 255.646C259.967 256.842 267.441 257.638 274.948 258.029C282.381 258.415 289.888 258.49 297.301 257.783C304.225 257.187 311.006 255.652 317.412 253.229C323.386 250.901 328.907 247.738 333.768 243.859C334.981 242.892 336.148 241.882 337.269 240.83C337.93 240.212 336.881 239.272 336.218 239.891C326.742 248.738 314.287 254.224 300.778 256.056C293.419 257.054 285.919 257.112 278.495 256.855C270.905 256.593 263.34 255.91 255.844 254.811C248.439 253.714 241.114 252.225 233.907 250.351C226.828 248.519 219.845 246.407 212.791 244.503C205.674 242.507 198.409 240.961 191.05 239.876C183.669 238.872 176.209 238.41 168.744 238.493C153.828 238.706 139.007 240.667 124.661 244.324C122.859 244.776 121.065 245.253 119.28 245.755C118.371 246.009 118.759 247.292 119.675 247.035H119.675Z" fill="#3F3D56"/>
<path d="M119.675 182.865C134.151 178.753 149.17 176.361 164.345 175.752C171.949 175.463 179.567 175.729 187.122 176.548C194.605 177.432 201.997 178.845 209.228 180.775C216.373 182.623 223.42 184.758 230.541 186.676C237.775 188.649 245.129 190.252 252.567 191.477C259.967 192.673 267.441 193.468 274.948 193.859C282.381 194.245 289.888 194.321 297.301 193.613C304.225 193.018 311.006 191.482 317.412 189.06C323.386 186.731 328.907 183.568 333.768 179.689C334.981 178.722 336.148 177.713 337.269 176.66C337.93 176.043 336.881 175.102 336.218 175.721C326.742 184.569 314.287 190.055 300.778 191.887C293.419 192.885 285.919 192.943 278.495 192.685C270.905 192.424 263.34 191.741 255.844 190.641C248.439 189.544 241.114 188.055 233.907 186.181C226.828 184.349 219.845 182.237 212.791 180.333C205.674 178.337 198.409 176.791 191.05 175.706C183.669 174.702 176.209 174.24 168.744 174.324C153.828 174.537 139.007 176.497 124.661 180.154C122.859 180.606 121.065 181.083 119.28 181.585C118.371 181.84 118.759 183.122 119.675 182.865H119.675Z" fill="#3F3D56"/>
<path d="M117.904 125.131C121.501 123.708 125.62 123.956 129.353 124.781C133.377 125.67 137.167 127.218 141.129 128.288C148.22 130.175 155.752 130.302 162.918 128.657C166.953 127.738 170.803 126.264 174.33 124.288C175.138 123.834 174.393 122.685 173.58 123.142C167.292 126.648 160.024 128.499 152.612 128.481C148.894 128.476 145.197 127.99 141.635 127.037C137.702 125.984 133.943 124.455 129.959 123.548C125.738 122.587 121.212 122.379 117.154 123.984C116.281 124.33 117.037 125.474 117.904 125.131Z" fill="#3F3D56"/>
<path d="M228.347 328.707C240.935 328.707 251.139 319.592 251.139 308.349C251.139 297.106 240.935 287.992 228.347 287.992C215.76 287.992 205.555 297.106 205.555 308.349C205.555 319.592 215.76 328.707 228.347 328.707Z" fill="#3F3D56"/>
<path d="M105.47 57.8663C112.311 57.8663 117.857 52.9128 117.857 46.8025C117.857 40.6922 112.311 35.7388 105.47 35.7388C98.6287 35.7388 93.0829 40.6922 93.0829 46.8025C93.0829 52.9128 98.6287 57.8663 105.47 57.8663Z" fill="#F2F2F2"/>
<path d="M213.978 85.7469C218.63 85.7469 222.402 82.3786 222.402 78.2235C222.402 74.0685 218.63 70.7002 213.978 70.7002C209.327 70.7002 205.555 74.0685 205.555 78.2235C205.555 82.3786 209.327 85.7469 213.978 85.7469Z" fill="#F2F2F2"/>
<path d="M77.2278 157.883C81.8797 157.883 85.6508 154.514 85.6508 150.359C85.6508 146.204 81.8797 142.836 77.2278 142.836C72.5758 142.836 68.8047 146.204 68.8047 150.359C68.8047 154.514 72.5758 157.883 77.2278 157.883Z" fill="#F2F2F2"/>
<path d="M43.3152 94.4685H42.3863V242.831H43.3152V94.4685Z" fill="#3F3D56"/>
<path d="M43.0299 230.116C53.0334 230.116 61.1428 213.587 61.1428 193.197C61.1428 172.807 53.0334 156.277 43.0299 156.277C33.0264 156.277 24.917 172.807 24.917 193.197C24.917 213.587 33.0264 230.116 43.0299 230.116Z" fill="#3F3D56"/>
<path d="M43.0299 145.907C53.0334 145.907 61.1428 129.378 61.1428 108.988C61.1428 88.5975 53.0334 72.0681 43.0299 72.0681C33.0264 72.0681 24.917 88.5975 24.917 108.988C24.917 129.378 33.0264 145.907 43.0299 145.907Z" fill="#3F3D56"/>
<path d="M43.4748 78.8242L42.5849 78.586C42.6411 78.4183 48.1019 61.704 39.1354 50.9441C34.0711 44.8671 25.3809 41.7857 13.3061 41.7857V40.9561C25.6925 40.9561 34.6342 44.1509 39.8831 50.4518C49.1271 61.549 43.5324 78.6529 43.4748 78.8242Z" fill="#3F3D56"/>
<path d="M13.3061 51.7415C19.7186 51.7415 24.917 47.0984 24.917 41.3709C24.917 35.6433 19.7186 31.0002 13.3061 31.0002C6.89366 31.0002 1.69531 35.6433 1.69531 41.3709C1.69531 47.0984 6.89366 51.7415 13.3061 51.7415Z" fill="#3F3D56"/>
<path d="M381.881 276.451L373.194 347.834H433.134L435.74 342.402L439.215 347.834H495.679C495.679 347.834 491.336 274.123 483.518 271.795C475.7 269.468 381.881 276.451 381.881 276.451Z" fill="#2F2E41"/>
<path d="M433.134 119.719C449.926 119.719 463.538 107.56 463.538 92.5623C463.538 77.5641 449.926 65.4058 433.134 65.4058C416.342 65.4058 402.73 77.5641 402.73 92.5623C402.73 107.56 416.342 119.719 433.134 119.719Z" fill="#FFB8B8"/>
<path d="M415.76 109.632C415.76 109.632 418.366 134.461 415.76 136.013C413.154 137.564 457.457 136.789 457.457 136.789C457.457 136.789 451.376 114.287 457.457 103.425L415.76 109.632Z" fill="#FFB8B8"/>
<path d="M431.396 130.581C431.396 130.581 453.749 133.691 455.603 127.481L467.013 141.444L467.881 281.106C467.881 281.106 374.932 291.193 371.457 274.899C367.982 258.605 407.073 129.805 407.073 129.805L416.914 129.236C416.914 129.236 429.659 130.581 431.396 130.581Z" fill="#D0CDE1"/>
<path d="M416.766 122.865L401.861 127.478L359.295 136.789L361.033 229.897C361.033 229.897 324.548 323.005 341.053 329.988C357.558 336.971 381.012 320.677 387.962 309.039C394.911 297.4 419.235 136.013 419.235 132.909C419.235 129.806 416.766 122.865 416.766 122.865Z" fill="#3F3D56"/>
<path d="M455.045 122.865L460.932 127.478L502.629 144.548L481.78 238.432C481.78 238.432 509.578 323.781 499.154 328.436C488.73 333.091 473.094 346.282 469.619 338.523C466.144 330.764 445.683 131.441 455.045 122.865Z" fill="#3F3D56"/>
<path d="M479.174 246.966C479.174 246.966 440.083 232.224 439.215 245.415C438.346 258.605 483.518 267.916 483.518 264.036C483.518 260.157 479.174 246.966 479.174 246.966Z" fill="#FFB8B8"/>
<path d="M383.618 241.535C383.618 241.535 428.79 271.795 411.417 279.554C394.043 287.313 371.457 252.398 371.457 252.398L383.618 241.535Z" fill="#FFB8B8"/>
<path d="M446.632 52.7822C446.775 52.5122 447.005 52.2865 447.292 52.1341C447.58 51.9816 447.912 51.9095 448.246 51.9268C434.326 51.1832 419.664 52.6322 408.019 59.4835C404.758 61.4023 401.712 63.7486 397.999 64.83L401.013 66.941L397.412 67.9214L402.712 70.9806C402.176 71.524 401.49 71.9313 400.722 72.1611C399.954 72.391 399.131 72.4353 398.337 72.2895C400.64 72.8905 402.336 74.7211 403.197 76.7213C404.058 78.7215 404.213 80.8999 404.359 83.039C405.249 79.9525 409.02 78.1357 412.582 77.9511C416.145 77.7665 419.619 78.8163 423.086 79.571C430.637 81.21 438.48 81.4795 446.149 80.3635C443.545 85.0318 445.742 90.6002 447.953 95.4278L452.367 105.067C454.818 105.287 456.55 103.11 458.396 101.654C460.079 100.327 453.379 111.999 454.417 111.572C455.764 111.016 469.985 96.9925 470.651 95.8078C473.689 90.4024 475.512 84.3733 475.238 78.3299C474.964 72.2866 472.488 66.2402 467.824 61.8549C464.658 58.8778 460.278 58.3564 457.05 55.8821C455.779 54.9083 455.775 54.1475 454.029 53.5796C453.449 53.3911 446.728 52.5921 446.632 52.7822Z" fill="#2F2E41"/>
<path d="M365.376 139.116L359.295 136.789L310.649 208.171C310.649 208.171 301.962 226.793 317.598 235.328C333.235 243.863 369.72 269.468 369.72 269.468L390.568 240.759C390.568 240.759 348.002 222.914 350.608 215.93C353.214 208.947 367.113 190.326 367.113 190.326L365.376 139.116Z" fill="#3F3D56"/>
<path d="M491.336 142.996L502.629 144.547C502.629 144.547 549.538 226.793 538.245 242.311C526.952 257.829 480.912 279.554 480.912 279.554C480.912 279.554 480.043 253.949 472.225 244.639L499.154 235.328L484.387 184.118L491.336 142.996Z" fill="#3F3D56"/>
</g>
<defs>
<clipPath id="clip0_5_248">
<rect width="540" height="364" fill="white"/>
</clipPath>
</defs>
</svg>
