<svg width="354" height="360" viewBox="0 0 354 360" fill="none" xmlns="http://www.w3.org/2000/svg">
<g clip-path="url(#clip0_2_84)">
<mask id="mask0_2_84" style="mask-type:alpha" maskUnits="userSpaceOnUse" x="1" y="31" width="353" height="329">
<path d="M177.489 360C274.793 360 353.674 286.552 353.674 195.949C353.674 105.347 274.793 31.8987 177.489 31.8987C80.1855 31.8987 1.30508 105.347 1.30508 195.949C1.30508 286.552 80.1855 360 177.489 360Z" fill="white"/>
</mask>
<g mask="url(#mask0_2_84)">
<path d="M177.489 360C274.793 360 353.674 286.552 353.674 195.949C353.674 105.347 274.793 31.8987 177.489 31.8987C80.1855 31.8987 1.30508 105.347 1.30508 195.949C1.30508 286.552 80.1855 360 177.489 360Z" fill="#F2491F"/>
<path d="M354.4 31.8987H1.30508V360H354.4V31.8987Z" fill="#F2491F"/>
</g>
<mask id="mask1_2_84" style="mask-type:alpha" maskUnits="userSpaceOnUse" x="-17" y="-23" width="389" height="383">
<path d="M-16.3134 195.949V-22.7848H371.292V195.949H353.674C353.674 286.552 274.793 360 177.489 360C80.1855 360 1.30508 286.552 1.30508 195.949H-16.3134Z" fill="white"/>
</mask>
<g mask="url(#mask1_2_84)">
<mask id="mask2_2_84" style="mask-type:alpha" maskUnits="userSpaceOnUse" x="30" y="26" width="295" height="334">
<path d="M177.489 26.4304C222.898 26.4304 259.709 60.7061 259.709 102.987L259.71 111.417C268.042 112.719 274.391 119.467 274.391 127.595V146.734C274.391 155.008 267.812 161.852 259.259 162.977C256.226 190.053 238.035 212.931 212.728 224.126L212.726 249.266H218.599C276.981 249.266 324.31 293.335 324.31 347.696V360H30.6691V347.696C30.6691 293.335 77.9974 249.266 136.38 249.266H142.253L142.253 224.126C116.945 212.932 98.7531 190.053 95.7181 162.977C87.1667 161.852 80.588 155.008 80.588 146.734V127.595C80.588 119.466 86.9374 112.718 95.2702 111.417L95.2701 102.987C95.2701 60.7061 132.081 26.4304 177.489 26.4304Z" fill="white"/>
</mask>
<g mask="url(#mask2_2_84)">
<path d="M177.489 26.4304C222.898 26.4304 259.709 60.7061 259.709 102.987L259.71 111.417C268.042 112.719 274.391 119.467 274.391 127.595V146.734C274.391 155.008 267.812 161.852 259.259 162.977C256.226 190.053 238.035 212.931 212.728 224.126L212.726 249.266H218.599C276.981 249.266 324.31 293.335 324.31 347.696V360H30.6691V347.696C30.6691 293.335 77.9974 249.266 136.38 249.266H142.253L142.253 224.126C116.945 212.932 98.7531 190.053 95.7181 162.977C87.1667 161.852 80.588 155.008 80.588 146.734V127.595C80.588 119.466 86.9374 112.718 95.2702 111.417L95.2701 102.987C95.2701 60.7061 132.081 26.4304 177.489 26.4304Z" fill="#D0C6AC"/>
<path d="M372.571 26.4304H-16.3134V361.147H372.571V26.4304Z" fill="#FFDBB4"/>
<path fill-rule="evenodd" clip-rule="evenodd" d="M95.2701 154.937C95.2701 197.218 132.081 231.494 177.489 231.494C222.898 231.494 259.709 197.218 259.709 154.937V165.873C259.709 208.155 222.898 242.43 177.489 242.43C132.081 242.43 95.2701 208.155 95.2701 165.873V154.937Z" fill="black" fill-opacity="0.1"/>
</g>
<mask id="mask3_2_84" style="mask-type:alpha" maskUnits="userSpaceOnUse" x="30" y="227" width="295" height="133">
<path d="M212.728 227.49C239.303 230.259 259.709 237.869 259.709 257.573L259.699 256.982C297.665 271.914 324.31 306.907 324.31 347.695V360H30.6691V347.695C30.6691 306.907 57.3133 271.914 95.2795 256.982C95.6821 237.716 115.945 230.23 142.252 227.489L142.253 253.367C142.253 271.488 158.029 286.177 177.489 286.177C196.95 286.177 212.726 271.488 212.726 253.367L212.728 227.49Z" fill="white"/>
</mask>
<g mask="url(#mask3_2_84)">
<path d="M212.728 227.49C239.303 230.259 259.709 237.869 259.709 257.573L259.699 256.982C297.665 271.914 324.31 306.907 324.31 347.695V360H30.6691V347.695C30.6691 306.907 57.3133 271.914 95.2795 256.982C95.6821 237.716 115.945 230.23 142.252 227.489L142.253 253.367C142.253 271.488 158.029 286.177 177.489 286.177C196.95 286.177 212.726 271.488 212.726 253.367L212.728 227.49Z" fill="#B7C1DB"/>
<path d="M372.745 209.62H-16.3134V360H372.745V209.62Z" fill="#293347"/>
<path fill-rule="evenodd" clip-rule="evenodd" d="M133.443 294.023L133.443 360H123.166L123.164 289.116C126.4 290.907 129.841 292.549 133.443 294.023ZM231.815 289.116L231.813 344.278C231.813 346.921 229.512 349.063 226.674 349.063C223.836 349.063 221.535 346.921 221.535 344.278L221.537 294.022C225.139 292.548 228.58 290.906 231.815 289.116Z" fill="#F4F4F4"/>
<path fill-rule="evenodd" clip-rule="evenodd" d="M237.74 227.015C259.84 230.906 275.125 238.66 275.125 253.788C275.125 280.736 226.619 302.582 177.489 302.582C128.36 302.582 79.8539 280.736 79.8539 253.788C79.8539 238.66 95.1388 230.906 117.239 227.015C103.898 231.593 95.27 239.292 95.27 252.105C95.27 279.983 136.117 302.582 177.489 302.582C218.862 302.582 259.709 279.983 259.709 252.105C259.709 239.56 251.437 231.917 238.568 227.305L237.74 227.015Z" fill="black" fill-opacity="0.16"/>
</g>
<mask id="mask4_2_84" style="mask-type:alpha" maskUnits="userSpaceOnUse" x="149" y="178" width="57" height="27">
<path d="M149.767 181.086C151.32 194.063 163.139 204.152 177.489 204.152C191.884 204.152 203.732 194 205.226 180.966C205.347 179.917 204.088 178.177 202.512 178.177C180.644 178.177 163.891 178.177 152.657 178.177C151.071 178.177 149.611 179.788 149.767 181.086Z" fill="white"/>
</mask>
<g mask="url(#mask4_2_84)">
<path d="M149.767 181.086C151.32 194.063 163.139 204.152 177.489 204.152C191.884 204.152 203.732 194 205.226 180.966C205.347 179.917 204.088 178.177 202.512 178.177C180.644 178.177 163.891 178.177 152.657 178.177C151.071 178.177 149.611 179.788 149.767 181.086Z" fill="black" fill-opacity="0.7"/>
<path fill-rule="evenodd" clip-rule="evenodd" d="M162.807 163.139H193.64C197.694 163.139 200.981 166.2 200.981 169.975V178.177C200.981 181.952 197.694 185.013 193.64 185.013H162.807C158.753 185.013 155.466 181.952 155.466 178.177V169.975C155.466 166.2 158.753 163.139 162.807 163.139Z" fill="#F2491F"/>
<path d="M170.148 223.291C179.068 223.291 186.299 216.558 186.299 208.253C186.299 199.948 179.068 193.215 170.148 193.215C161.229 193.215 153.998 199.948 153.998 208.253C153.998 216.558 161.229 223.291 170.148 223.291Z" fill="#FF4F6D"/>
<path d="M184.83 223.291C193.75 223.291 200.981 216.558 200.981 208.253C200.981 199.948 193.75 193.215 184.83 193.215C175.911 193.215 168.68 199.948 168.68 208.253C168.68 216.558 175.911 223.291 184.83 223.291Z" fill="#FF4F6D"/>
</g>
<path fill-rule="evenodd" clip-rule="evenodd" d="M159.871 154.937C159.871 160.977 167.759 165.873 177.489 165.873C187.22 165.873 195.108 160.977 195.108 154.937" fill="black" fill-opacity="0.16"/>
<path fill-rule="evenodd" clip-rule="evenodd" d="M118.996 130.941C121.708 125.747 127.812 122.127 134.908 122.127C141.979 122.127 148.065 125.722 150.791 130.886C151.6 132.42 150.448 133.675 149.286 132.745C145.687 129.864 140.577 128.065 134.908 128.065C129.416 128.065 124.449 129.753 120.872 132.478C119.564 133.474 118.204 132.46 118.996 130.941Z" fill="black" fill-opacity="0.6"/>
<path fill-rule="evenodd" clip-rule="evenodd" d="M204.152 130.941C206.863 125.747 212.968 122.127 220.064 122.127C227.135 122.127 233.221 125.722 235.946 130.886C236.756 132.42 235.604 133.675 234.442 132.745C230.843 129.864 225.733 128.065 220.064 128.065C214.572 128.065 209.605 129.753 206.028 132.478C204.72 133.474 203.359 132.46 204.152 130.941Z" fill="black" fill-opacity="0.6"/>
<path fill-rule="evenodd" clip-rule="evenodd" d="M134.247 97.7219C125.721 98.0886 111.937 103.857 112.293 111.863C112.304 112.125 112.718 112.24 112.92 112.038C116.964 107.993 145.683 103.905 155.798 106.071C156.724 106.269 157.427 105.419 156.841 104.805C151.817 99.5439 141.885 97.3864 134.247 97.7219Z" fill="black" fill-opacity="0.6"/>
<path fill-rule="evenodd" clip-rule="evenodd" d="M222.2 97.7219C230.726 98.0886 244.51 103.857 244.154 111.863C244.143 112.125 243.729 112.24 243.527 112.038C239.483 107.993 210.764 103.905 200.649 106.071C199.723 106.269 199.02 105.419 199.606 104.805C204.63 99.5439 214.562 97.3864 222.2 97.7219Z" fill="black" fill-opacity="0.6"/>
<mask id="mask5_2_84" style="mask-type:alpha" maskUnits="userSpaceOnUse" x="-17" y="-23" width="389" height="383">
<path d="M371.292 -22.7848H-16.3134V360H371.292V-22.7848Z" fill="white"/>
</mask>
<g mask="url(#mask5_2_84)">
<mask id="mask6_2_84" style="mask-type:alpha" maskUnits="userSpaceOnUse" x="90" y="0" width="173" height="113">
<path d="M246.552 31.7899C242.5 27.9347 237.796 24.6625 233.22 21.3811C232.21 20.6578 231.184 19.9519 230.197 19.201C229.973 19.0304 227.674 17.4975 227.399 16.9333C226.737 15.576 227.12 16.6328 227.212 15.0132C227.327 12.9652 231.812 7.18083 228.466 5.85433C226.993 5.27089 224.367 6.82352 222.955 7.33633C220.192 8.33992 217.396 9.19581 214.54 9.93383C215.909 7.3955 218.517 2.31424 213.614 3.67423C209.795 4.73378 206.235 7.45788 202.397 8.73943C203.667 6.80105 208.746 0.794636 204.157 0.458883C202.728 0.354304 198.573 2.8486 197.035 3.38067C192.43 4.97458 187.726 6.00478 182.891 6.81618C166.45 9.57514 147.224 8.78851 132.013 15.7581C120.286 21.1311 108.706 29.4681 101.932 40.0842C95.4023 50.3169 92.9602 61.5156 91.5935 73.2413C90.5907 81.8465 90.5092 90.7417 90.9782 99.3782C91.1314 102.208 91.4732 115.251 95.888 111.301C98.0875 109.333 98.0713 101.385 98.6253 98.6952C99.7277 93.3429 100.789 87.9667 102.627 82.7855C105.866 73.655 109.687 69.3975 117.757 63.109C122.935 59.074 126.572 53.6203 131.527 49.5495C133.753 47.7212 132.055 47.9116 135.634 48.1515C138.038 48.3125 140.453 48.3739 142.862 48.4326C148.436 48.5675 154.018 48.5331 159.592 48.5514C170.82 48.589 181.994 48.7367 193.21 48.1895C198.195 47.9464 203.193 47.8148 208.164 47.3855C210.941 47.1456 215.869 45.4884 218.155 46.7548C220.247 47.9134 222.419 51.6966 223.922 53.246C227.471 56.9077 231.702 59.7042 235.852 62.7067C244.506 68.9673 248.875 71.3621 251.504 81.1457C254.122 90.8931 253.388 99.9362 256.629 109.529C257.199 111.215 258.707 114.122 260.566 111.516C260.912 111.033 260.822 108.372 260.822 106.842C260.822 100.663 262.503 96.0266 262.482 89.8074C262.399 70.8979 261.743 46.2406 246.552 31.7899Z" fill="white"/>
</mask>
<g mask="url(#mask6_2_84)">
<path d="M246.552 31.7899C242.5 27.9347 237.796 24.6625 233.22 21.3811C232.21 20.6578 231.184 19.9519 230.197 19.201C229.973 19.0304 227.674 17.4975 227.399 16.9333C226.737 15.576 227.12 16.6328 227.212 15.0132C227.327 12.9652 231.812 7.18083 228.466 5.85433C226.993 5.27089 224.367 6.82352 222.955 7.33633C220.192 8.33992 217.396 9.19581 214.54 9.93383C215.909 7.3955 218.517 2.31424 213.614 3.67423C209.795 4.73378 206.235 7.45788 202.397 8.73943C203.667 6.80105 208.746 0.794636 204.157 0.458883C202.728 0.354304 198.573 2.8486 197.035 3.38067C192.43 4.97458 187.726 6.00478 182.891 6.81618C166.45 9.57514 147.224 8.78851 132.013 15.7581C120.286 21.1311 108.706 29.4681 101.932 40.0842C95.4023 50.3169 92.9602 61.5156 91.5935 73.2413C90.5907 81.8465 90.5092 90.7417 90.9782 99.3782C91.1314 102.208 91.4732 115.251 95.888 111.301C98.0875 109.333 98.0713 101.385 98.6253 98.6952C99.7277 93.3429 100.789 87.9667 102.627 82.7855C105.866 73.655 109.687 69.3975 117.757 63.109C122.935 59.074 126.572 53.6203 131.527 49.5495C133.753 47.7212 132.055 47.9116 135.634 48.1515C138.038 48.3125 140.453 48.3739 142.862 48.4326C148.436 48.5675 154.018 48.5331 159.592 48.5514C170.82 48.589 181.994 48.7367 193.21 48.1895C198.195 47.9464 203.193 47.8148 208.164 47.3855C210.941 47.1456 215.869 45.4884 218.155 46.7548C220.247 47.9134 222.419 51.6966 223.922 53.246C227.471 56.9077 231.702 59.7042 235.852 62.7067C244.506 68.9673 248.875 71.3621 251.504 81.1457C254.122 90.8931 253.388 99.9362 256.629 109.529C257.199 111.215 258.707 114.122 260.566 111.516C260.912 111.033 260.822 108.372 260.822 106.842C260.822 100.663 262.503 96.0266 262.482 89.8074C262.399 70.8979 261.743 46.2406 246.552 31.7899Z" fill="#1F3140"/>
<path d="M373.587 -22.7848H-16.4765V360.617H373.587V-22.7848Z" fill="#4A312C"/>
</g>
</g>
</g>
</g>
<defs>
<clipPath id="clip0_2_84">
<rect width="354" height="360" fill="white"/>
</clipPath>
</defs>
</svg>
